<?xml version="1.0" encoding="UTF-8" standalone="no"?>
<!DOCTYPE svg PUBLIC "-//W3C//DTD SVG 1.1//EN"
 "http://www.w3.org/Graphics/SVG/1.1/DTD/svg11.dtd">
<!-- Generated by graphviz version 13.1.0 (20250701.0955)
 -->
<!-- Title: FeedProductionProcess Pages: 1 -->
<svg width="918pt" height="1477pt"
 viewBox="0.00 0.00 918.00 1477.00" xmlns="http://www.w3.org/2000/svg" xmlns:xlink="http://www.w3.org/1999/xlink">
<g id="graph0" class="graph" transform="scale(1 1) rotate(0) translate(4 1472.75)">
<title>FeedProductionProcess</title>
<polygon fill="white" stroke="none" points="-4,4 -4,-1472.75 913.57,-1472.75 913.57,4 -4,4"/>
<g id="clust1" class="cluster">
<title>cluster_ENTRADAS_MACRO</title>
<polygon fill="none" stroke="grey" stroke-dasharray="1,5" points="61,-1289.25 61,-1460.75 294,-1460.75 294,-1289.25 61,-1289.25"/>
<text xml:space="preserve" text-anchor="middle" x="177.5" y="-1443.45" font-family="Times,serif" font-size="14.00">PUNTO 1: ENTRADAS AL SISTEMA</text>
</g>
<g id="clust2" class="cluster">
<title>cluster_PUNTO_CRITICO_INICIO</title>
<polygon fill="none" stroke="grey" stroke-dasharray="1,5" points="8,-967.75 8,-1164.25 236,-1164.25 236,-967.75 8,-967.75"/>
<text xml:space="preserve" text-anchor="middle" x="122" y="-1146.95" font-family="Times,serif" font-size="14.00">PUNTO 2: EL CERO DEL PROCESO</text>
</g>
<g id="clust3" class="cluster">
<title>cluster_ZONA_DE_TRANSFORMACION</title>
<polygon fill="none" stroke="grey" stroke-dasharray="1,5" points="304,-532.75 304,-1048.25 815,-1048.25 815,-532.75 304,-532.75"/>
<text xml:space="preserve" text-anchor="middle" x="559.5" y="-1030.95" font-family="Times,serif" font-size="14.00">PUNTO 3 y 4: LA CAJA NEGRA</text>
</g>
<g id="clust4" class="cluster">
<title>cluster_SALIDAS_FINALES</title>
<polygon fill="none" stroke="grey" stroke-dasharray="1,5" points="120,-123.75 120,-407.75 508,-407.75 508,-123.75 120,-123.75"/>
<text xml:space="preserve" text-anchor="middle" x="314" y="-390.45" font-family="Times,serif" font-size="14.00">PUNTO 5: SALIDAS VENDIBLES</text>
</g>
<g id="clust5" class="cluster">
<title>cluster_RESULTADO</title>
<polygon fill="none" stroke="grey" stroke-dasharray="1,5" points="175,-8 175,-93.75 680,-93.75 680,-8 175,-8"/>
<text xml:space="preserve" text-anchor="middle" x="427.5" y="-76.45" font-family="Times,serif" font-size="14.00">ANÁLISIS DE DATOS</text>
</g>
<!-- A -->
<g id="node1" class="node">
<title>A</title>
<polygon fill="#e1f5fe" stroke="#01579b" points="198.75,-1428.25 97.25,-1428.25 97.25,-1392.25 198.75,-1392.25 198.75,-1428.25"/>
<text xml:space="preserve" text-anchor="middle" x="148" y="-1412.75" font-family="Arial" font-size="10.00">Báscula Camionera</text>
<text xml:space="preserve" text-anchor="middle" x="148" y="-1400.75" font-family="Arial" font-size="10.00">Materias Primas</text>
</g>
<!-- B -->
<g id="node2" class="node">
<title>B</title>
<polygon fill="#fff3e0" stroke="#e65100" points="200.25,-1333.25 95.75,-1333.25 95.75,-1297.25 200.25,-1297.25 200.25,-1333.25"/>
<text xml:space="preserve" text-anchor="middle" x="148" y="-1311.75" font-family="Arial" font-size="10.00">Silos de Almacenaje</text>
</g>
<!-- A&#45;&gt;B -->
<g id="edge1" class="edge">
<title>A&#45;&gt;B</title>
<path fill="none" stroke="black" d="M148,-1391.76C148,-1378.64 148,-1360.39 148,-1345.12"/>
<polygon fill="black" stroke="black" points="151.5,-1345.18 148,-1335.18 144.5,-1345.18 151.5,-1345.18"/>
</g>
<!-- D -->
<g id="node3" class="node">
<title>D</title>
<polygon fill="#fff3e0" stroke="#e65100" points="183,-1238.25 113,-1238.25 113,-1202.25 183,-1202.25 183,-1238.25"/>
<text xml:space="preserve" text-anchor="middle" x="148" y="-1222.75" font-family="Arial" font-size="10.00">Molienda y</text>
<text xml:space="preserve" text-anchor="middle" x="148" y="-1210.75" font-family="Arial" font-size="10.00">Dosificación</text>
</g>
<!-- B&#45;&gt;D -->
<g id="edge2" class="edge">
<title>B&#45;&gt;D</title>
<path fill="none" stroke="black" d="M148,-1296.76C148,-1283.64 148,-1265.39 148,-1250.12"/>
<polygon fill="black" stroke="black" points="151.5,-1250.18 148,-1240.18 144.5,-1250.18 151.5,-1250.18"/>
</g>
<!-- E -->
<g id="node4" class="node">
<title>E</title>
<polygon fill="#fff3e0" stroke="#e65100" points="218.62,-1131.75 77.38,-1131.75 77.38,-1095.75 218.62,-1095.75 218.62,-1131.75"/>
<text xml:space="preserve" text-anchor="middle" x="148" y="-1110.25" font-family="Arial" font-size="10.00">MEZCLADORA PRINCIPAL</text>
</g>
<!-- D&#45;&gt;E -->
<g id="edge4" class="edge">
<title>D&#45;&gt;E</title>
<path fill="none" stroke="black" d="M148,-1202C148,-1186.12 148,-1162.25 148,-1143.49"/>
<polygon fill="black" stroke="black" points="151.5,-1143.55 148,-1133.55 144.5,-1143.55 151.5,-1143.55"/>
</g>
<!-- DP2 -->
<g id="node5" class="node">
<title>DP2</title>
<polygon fill="#ffeb3b" stroke="#fbc02d" stroke-dasharray="5,2" points="221.88,-1019.75 16.12,-1019.75 16.12,-975.75 227.88,-975.75 227.88,-1013.75 221.88,-1019.75"/>
<polyline fill="none" stroke="#fbc02d" stroke-dasharray="5,2" points="221.88,-1019.75 221.88,-1013.75"/>
<polyline fill="none" stroke="#fbc02d" stroke-dasharray="5,2" points="227.88,-1013.75 221.88,-1013.75"/>
<text xml:space="preserve" text-anchor="middle" x="122" y="-1006.25" font-family="Arial" font-size="10.00">DATA POINT 2:</text>
<text xml:space="preserve" text-anchor="middle" x="122" y="-994.25" font-family="Arial" font-size="10.00">&#45; Peso Total a producir por día/lotes/op&#39;s</text>
<text xml:space="preserve" text-anchor="middle" x="122" y="-982.25" font-family="Arial" font-size="10.00">&#45; % Humedad Harina Inicial por día/lotes/ops</text>
</g>
<!-- E&#45;&gt;DP2 -->
<g id="edge3" class="edge">
<title>E&#45;&gt;DP2</title>
<path fill="none" stroke="black" stroke-dasharray="5,2" d="M144.05,-1095.44C140.17,-1078.41 134.14,-1052 129.37,-1031.09"/>
<polygon fill="black" stroke="black" points="132.85,-1030.57 127.21,-1021.6 126.02,-1032.13 132.85,-1030.57"/>
<text xml:space="preserve" text-anchor="middle" x="168.08" y="-1058.2" font-family="Arial" font-size="9.00">DATOS CLAVE</text>
</g>
<!-- F -->
<g id="node6" class="node">
<title>F</title>
<polygon fill="#fff3e0" stroke="#e65100" points="456.12,-1015.75 311.88,-1015.75 311.88,-979.75 456.12,-979.75 456.12,-1015.75"/>
<text xml:space="preserve" text-anchor="middle" x="384" y="-994.25" font-family="Arial" font-size="10.00">Tolva hacia el acondicionador</text>
</g>
<!-- E&#45;&gt;F -->
<g id="edge5" class="edge">
<title>E&#45;&gt;F</title>
<path fill="none" stroke="black" d="M184.1,-1095.32C225.31,-1075.41 292.81,-1042.8 337.82,-1021.06"/>
<polygon fill="black" stroke="black" points="339.06,-1024.35 346.54,-1016.85 336.01,-1018.05 339.06,-1024.35"/>
</g>
<!-- CALCULO_SACKOFF -->
<g id="node21" class="node">
<title>CALCULO_SACKOFF</title>
<ellipse fill="none" stroke="black" cx="292" cy="-38.63" rx="109.42" ry="22.63"/>
<text xml:space="preserve" text-anchor="middle" x="292" y="-41.13" font-family="Arial" font-size="10.00">CÁLCULO SACK&#45;OFF BRUTO</text>
<text xml:space="preserve" text-anchor="middle" x="292" y="-29.13" font-family="Arial" font-size="10.00"> Entrada vs Salida Total</text>
</g>
<!-- DP2&#45;&gt;CALCULO_SACKOFF -->
<g id="edge22" class="edge">
<title>DP2&#45;&gt;CALCULO_SACKOFF</title>
<path fill="none" stroke="black" stroke-dasharray="1,5" d="M105.68,-975.63C91.43,-955.03 73,-922.21 73,-890.25 73,-890.25 73,-890.25 73,-152.75 73,-95.97 131.84,-67.66 188.53,-53.56"/>
<polygon fill="black" stroke="black" points="189.03,-57.03 197.97,-51.35 187.43,-50.22 189.03,-57.03"/>
</g>
<!-- G -->
<g id="node7" class="node">
<title>G</title>
<polygon fill="#fff3e0" stroke="#e65100" points="563.38,-907.25 480.62,-907.25 480.62,-871.25 563.38,-871.25 563.38,-907.25"/>
<text xml:space="preserve" text-anchor="middle" x="522" y="-885.75" font-family="Arial" font-size="10.00">Acondicionador</text>
</g>
<!-- F&#45;&gt;G -->
<g id="edge6" class="edge">
<title>F&#45;&gt;G</title>
<path fill="none" stroke="black" d="M406.48,-979.41C429.33,-961.77 464.94,-934.29 490.58,-914.51"/>
<polygon fill="black" stroke="black" points="492.55,-917.4 498.33,-908.52 488.28,-911.86 492.55,-917.4"/>
</g>
<!-- DP3 -->
<g id="node9" class="node">
<title>DP3</title>
<polygon fill="#ffeb3b" stroke="#fbc02d" stroke-dasharray="5,2" points="800.5,-802.75 595.5,-802.75 595.5,-758.75 806.5,-758.75 806.5,-796.75 800.5,-802.75"/>
<polyline fill="none" stroke="#fbc02d" stroke-dasharray="5,2" points="800.5,-802.75 800.5,-796.75"/>
<polyline fill="none" stroke="#fbc02d" stroke-dasharray="5,2" points="806.5,-796.75 800.5,-796.75"/>
<text xml:space="preserve" text-anchor="middle" x="701" y="-789.25" font-family="Arial" font-size="10.00">DATA POINT 3:</text>
<text xml:space="preserve" text-anchor="middle" x="701" y="-777.25" font-family="Arial" font-size="10.00">&#45; Flujo de Vapor kg/h por Lote/Ops/Día</text>
<text xml:space="preserve" text-anchor="middle" x="701" y="-765.25" font-family="Arial" font-size="10.00">&#45; Temp. Acondicionamiento por Lote/Ops/Día</text>
</g>
<!-- G&#45;&gt;DP3 -->
<g id="edge8" class="edge">
<title>G&#45;&gt;DP3</title>
<path fill="none" stroke="black" stroke-dasharray="5,2" d="M527.78,-870.96C532.78,-858.46 541.16,-842.03 553.5,-831.75 565.29,-821.94 579.09,-814.02 593.44,-807.63"/>
<polygon fill="black" stroke="black" points="594.69,-810.91 602.57,-803.83 592,-804.44 594.69,-810.91"/>
<text xml:space="preserve" text-anchor="middle" x="584.25" y="-833.7" font-family="Arial" font-size="9.00">DATOS CLAVE</text>
</g>
<!-- I -->
<g id="node10" class="node">
<title>I</title>
<polygon fill="#fff3e0" stroke="#e65100" points="559.62,-798.75 466.38,-798.75 466.38,-762.75 559.62,-762.75 559.62,-798.75"/>
<text xml:space="preserve" text-anchor="middle" x="513" y="-777.25" font-family="Arial" font-size="10.00">Tambor con Dado</text>
</g>
<!-- G&#45;&gt;I -->
<g id="edge9" class="edge">
<title>G&#45;&gt;I</title>
<path fill="none" stroke="black" d="M520.46,-870.78C519.71,-862.19 518.8,-851.68 518,-842.25 517.13,-831.95 516.19,-820.66 515.36,-810.65"/>
<polygon fill="black" stroke="black" points="518.86,-810.42 514.55,-800.74 511.88,-810.99 518.86,-810.42"/>
</g>
<!-- H -->
<g id="node8" class="node">
<title>H</title>
<polygon fill="#e1f5fe" stroke="#01579b" points="575.75,-1015.75 492.25,-1015.75 492.25,-979.75 575.75,-979.75 575.75,-1015.75"/>
<text xml:space="preserve" text-anchor="middle" x="534" y="-994.25" font-family="Arial" font-size="10.00">Caldera / Vapor</text>
</g>
<!-- H&#45;&gt;G -->
<g id="edge7" class="edge">
<title>H&#45;&gt;G</title>
<path fill="none" stroke="black" d="M532.07,-979.64C530.23,-963.28 527.41,-938.3 525.23,-918.91"/>
<polygon fill="black" stroke="black" points="528.73,-918.73 524.13,-909.18 521.77,-919.51 528.73,-918.73"/>
<text xml:space="preserve" text-anchor="middle" x="572.61" y="-938.2" font-family="Arial" font-size="9.00">GANANCIA DE PESO</text>
</g>
<!-- ANALISIS_MERMA -->
<g id="node22" class="node">
<title>ANALISIS_MERMA</title>
<ellipse fill="none" stroke="black" cx="555" cy="-38.63" rx="117.38" ry="22.63"/>
<text xml:space="preserve" text-anchor="middle" x="555" y="-41.13" font-family="Arial" font-size="10.00">ANÁLISIS DE MERMA TÉCNICA</text>
<text xml:space="preserve" text-anchor="middle" x="555" y="-29.13" font-family="Arial" font-size="10.00"> Balance de Humedad P2 vs P4</text>
</g>
<!-- DP3&#45;&gt;ANALISIS_MERMA -->
<g id="edge25" class="edge">
<title>DP3&#45;&gt;ANALISIS_MERMA</title>
<path fill="none" stroke="black" stroke-dasharray="1,5" d="M700.31,-758.56C699.73,-738.92 699,-708.86 699,-682.75 699,-682.75 699,-682.75 699,-152.75 699,-110.47 660.13,-81.59 622.79,-63.6"/>
<polygon fill="black" stroke="black" points="624.25,-60.42 613.7,-59.44 621.34,-66.78 624.25,-60.42"/>
</g>
<!-- J -->
<g id="node11" class="node">
<title>J</title>
<polygon fill="#fff3e0" stroke="#e65100" points="535.62,-699.75 400.38,-699.75 400.38,-663.75 535.62,-663.75 535.62,-699.75"/>
<text xml:space="preserve" text-anchor="middle" x="468" y="-678.25" font-family="Arial" font-size="10.00">ENFRIADOR / SECADOR</text>
</g>
<!-- I&#45;&gt;J -->
<g id="edge10" class="edge">
<title>I&#45;&gt;J</title>
<path fill="none" stroke="black" d="M504.95,-762.41C498.24,-747.93 488.53,-727.02 480.76,-710.25"/>
<polygon fill="black" stroke="black" points="484,-708.92 476.61,-701.32 477.65,-711.86 484,-708.92"/>
</g>
<!-- K -->
<g id="node12" class="node">
<title>K</title>
<polygon fill="#fff3e0" stroke="#e65100" points="398.5,-580.75 337.5,-580.75 337.5,-544.75 398.5,-544.75 398.5,-580.75"/>
<text xml:space="preserve" text-anchor="middle" x="368" y="-559.25" font-family="Arial" font-size="10.00">Atmósfera</text>
</g>
<!-- J&#45;&gt;K -->
<g id="edge11" class="edge">
<title>J&#45;&gt;K</title>
<path fill="none" stroke="black" d="M440.25,-663.45C429.11,-655.61 416.69,-645.65 407.25,-634.75 396.01,-621.78 386.57,-605.05 379.77,-591.1"/>
<polygon fill="black" stroke="black" points="383.13,-590.03 375.74,-582.45 376.79,-592.99 383.13,-590.03"/>
<text xml:space="preserve" text-anchor="middle" x="448.12" y="-626.2" font-family="Arial" font-size="9.00">PÉRDIDA DE PESO</text>
<text xml:space="preserve" text-anchor="middle" x="448.12" y="-615.7" font-family="Arial" font-size="9.00">(Humedad/Calor)</text>
</g>
<!-- DP4 -->
<g id="node13" class="node">
<title>DP4</title>
<polygon fill="#ffeb3b" stroke="#fbc02d" stroke-dasharray="5,2" points="636.88,-584.75 437.12,-584.75 437.12,-540.75 642.88,-540.75 642.88,-578.75 636.88,-584.75"/>
<polyline fill="none" stroke="#fbc02d" stroke-dasharray="5,2" points="636.88,-584.75 636.88,-578.75"/>
<polyline fill="none" stroke="#fbc02d" stroke-dasharray="5,2" points="642.88,-578.75 636.88,-578.75"/>
<text xml:space="preserve" text-anchor="middle" x="540" y="-571.25" font-family="Arial" font-size="10.00">DATA POINT 4:</text>
<text xml:space="preserve" text-anchor="middle" x="540" y="-559.25" font-family="Arial" font-size="10.00">&#45; % Humedad Pellet Final por Lote/Ops/Día</text>
<text xml:space="preserve" text-anchor="middle" x="540" y="-547.25" font-family="Arial" font-size="10.00">&#45; Temperatura Salida por día/lotes/ops</text>
</g>
<!-- J&#45;&gt;DP4 -->
<g id="edge13" class="edge">
<title>J&#45;&gt;DP4</title>
<path fill="none" stroke="black" stroke-dasharray="5,2" d="M478.62,-663.49C489.75,-645.41 507.46,-616.64 521,-594.63"/>
<polygon fill="black" stroke="black" points="523.83,-596.7 526.1,-586.35 517.87,-593.03 523.83,-596.7"/>
<text xml:space="preserve" text-anchor="middle" x="539.06" y="-620.95" font-family="Arial" font-size="9.00">DATOS CLAVE</text>
</g>
<!-- L -->
<g id="node14" class="node">
<title>L</title>
<polygon fill="#fff3e0" stroke="#e65100" points="296.12,-580.75 127.88,-580.75 127.88,-544.75 296.12,-544.75 296.12,-580.75"/>
<text xml:space="preserve" text-anchor="middle" x="212" y="-559.25" font-family="Arial" font-size="10.00">Tamiz o sistema que toma el pellet</text>
</g>
<!-- J&#45;&gt;L -->
<g id="edge14" class="edge">
<title>J&#45;&gt;L</title>
<path fill="none" stroke="black" d="M429.95,-663.37C384.92,-642.79 309.87,-608.48 260.65,-585.99"/>
<polygon fill="black" stroke="black" points="262.18,-582.84 251.63,-581.87 259.28,-589.21 262.18,-582.84"/>
</g>
<!-- K&#45;&gt;F -->
<g id="edge12" class="edge">
<title>K&#45;&gt;F</title>
<path fill="none" stroke="black" d="M363.16,-581.04C357.24,-603.73 348,-644.9 348,-680.75 348,-890.25 348,-890.25 348,-890.25 348,-918.18 359.24,-948.15 369.16,-969.16"/>
<polygon fill="black" stroke="black" points="365.92,-970.51 373.49,-977.92 372.2,-967.4 365.92,-970.51"/>
<text xml:space="preserve" text-anchor="middle" x="389.25" y="-777.45" font-family="Arial" font-size="9.00">Recuperación Finos</text>
</g>
<!-- DP4&#45;&gt;ANALISIS_MERMA -->
<g id="edge26" class="edge">
<title>DP4&#45;&gt;ANALISIS_MERMA</title>
<path fill="none" stroke="black" stroke-dasharray="1,5" d="M545.25,-540.33C549.57,-520.77 555,-491 555,-464.75 555,-464.75 555,-464.75 555,-152.75 555,-125.95 555,-95.58 555,-73.05"/>
<polygon fill="black" stroke="black" points="558.5,-73.25 555,-63.25 551.5,-73.25 558.5,-73.25"/>
</g>
<!-- L&#45;&gt;F -->
<g id="edge15" class="edge">
<title>L&#45;&gt;F</title>
<path fill="none" stroke="black" d="M281.48,-581.22C287.72,-582.52 293.96,-583.73 300,-584.75 542.32,-626.08 703.05,-545.32 825,-758.75 886.17,-865.81 735.58,-901.22 621,-946.75 559.67,-971.13 538.31,-952.91 474,-967.75 464.13,-970.03 453.79,-972.9 443.79,-975.93"/>
<polygon fill="black" stroke="black" points="443.04,-972.5 434.54,-978.82 445.13,-979.18 443.04,-972.5"/>
<text xml:space="preserve" text-anchor="middle" x="874.32" y="-777.45" font-family="Arial" font-size="9.00">Retorno de Finos</text>
</g>
<!-- M -->
<g id="node15" class="node">
<title>M</title>
<polygon fill="#fff3e0" stroke="#e65100" points="285.62,-481.75 138.38,-481.75 138.38,-445.75 285.62,-445.75 285.62,-481.75"/>
<text xml:space="preserve" text-anchor="middle" x="212" y="-460.25" font-family="Arial" font-size="10.00">Tolvas de Producto Terminado</text>
</g>
<!-- L&#45;&gt;M -->
<g id="edge16" class="edge">
<title>L&#45;&gt;M</title>
<path fill="none" stroke="black" d="M212,-544.41C212,-530.21 212,-509.81 212,-493.22"/>
<polygon fill="black" stroke="black" points="215.5,-493.46 212,-483.46 208.5,-493.46 215.5,-493.46"/>
</g>
<!-- N -->
<g id="node16" class="node">
<title>N</title>
<polygon fill="#fff3e0" stroke="#e65100" points="252.25,-375.25 171.75,-375.25 171.75,-339.25 252.25,-339.25 252.25,-375.25"/>
<text xml:space="preserve" text-anchor="middle" x="212" y="-353.75" font-family="Arial" font-size="10.00">Ruta de Salida</text>
</g>
<!-- M&#45;&gt;N -->
<g id="edge21" class="edge">
<title>M&#45;&gt;N</title>
<path fill="none" stroke="black" d="M212,-445.5C212,-429.62 212,-405.75 212,-386.99"/>
<polygon fill="black" stroke="black" points="215.5,-387.05 212,-377.05 208.5,-387.05 215.5,-387.05"/>
</g>
<!-- O -->
<g id="node17" class="node">
<title>O</title>
<polygon fill="#e8f5e9" stroke="#1b5e20" points="411.62,-280.25 324.38,-280.25 324.38,-244.25 411.62,-244.25 411.62,-280.25"/>
<text xml:space="preserve" text-anchor="middle" x="368" y="-258.75" font-family="Arial" font-size="10.00">ENSACADORA</text>
</g>
<!-- N&#45;&gt;O -->
<g id="edge17" class="edge">
<title>N&#45;&gt;O</title>
<path fill="none" stroke="black" d="M241.34,-338.76C266.18,-323.95 301.98,-302.61 329.19,-286.39"/>
<polygon fill="black" stroke="black" points="330.69,-289.57 337.49,-281.44 327.11,-283.56 330.69,-289.57"/>
</g>
<!-- P -->
<g id="node19" class="node">
<title>P</title>
<polygon fill="#e8f5e9" stroke="#1b5e20" points="253.88,-280.25 150.12,-280.25 150.12,-244.25 253.88,-244.25 253.88,-280.25"/>
<text xml:space="preserve" text-anchor="middle" x="202" y="-258.75" font-family="Arial" font-size="10.00">CARGA A GRANEL</text>
</g>
<!-- N&#45;&gt;P -->
<g id="edge19" class="edge">
<title>N&#45;&gt;P</title>
<path fill="none" stroke="black" d="M210.12,-338.76C208.69,-325.51 206.71,-307.03 205.06,-291.67"/>
<polygon fill="black" stroke="black" points="208.58,-291.74 204.03,-282.17 201.62,-292.49 208.58,-291.74"/>
</g>
<!-- DP5A -->
<g id="node18" class="node">
<title>DP5A</title>
<polygon fill="#ffeb3b" stroke="#fbc02d" stroke-dasharray="5,2" points="493.88,-175.75 300.12,-175.75 300.12,-131.75 499.88,-131.75 499.88,-169.75 493.88,-175.75"/>
<polyline fill="none" stroke="#fbc02d" stroke-dasharray="5,2" points="493.88,-175.75 493.88,-169.75"/>
<polyline fill="none" stroke="#fbc02d" stroke-dasharray="5,2" points="499.88,-169.75 493.88,-169.75"/>
<text xml:space="preserve" text-anchor="middle" x="400" y="-162.25" font-family="Arial" font-size="10.00">DATA POINT 5A Saco:</text>
<text xml:space="preserve" text-anchor="middle" x="400" y="-150.25" font-family="Arial" font-size="10.00">&#45; Peso Promedio Real por Saco (aleatorio)</text>
<text xml:space="preserve" text-anchor="middle" x="400" y="-138.25" font-family="Arial" font-size="10.00">&#45; Conteo Total de Sacos</text>
</g>
<!-- O&#45;&gt;DP5A -->
<g id="edge18" class="edge">
<title>O&#45;&gt;DP5A</title>
<path fill="none" stroke="black" stroke-dasharray="5,2" d="M373.14,-244.14C377.76,-228.78 384.66,-205.82 390.31,-187.02"/>
<polygon fill="black" stroke="black" points="393.58,-188.27 393.11,-177.69 386.88,-186.26 393.58,-188.27"/>
<text xml:space="preserve" text-anchor="middle" x="415.71" y="-206.7" font-family="Arial" font-size="9.00">DATOS CLAVE</text>
</g>
<!-- DP5A&#45;&gt;CALCULO_SACKOFF -->
<g id="edge23" class="edge">
<title>DP5A&#45;&gt;CALCULO_SACKOFF</title>
<path fill="none" stroke="black" stroke-dasharray="1,5" d="M379.69,-131.48C362.97,-113.97 339.09,-88.95 320.47,-69.45"/>
<polygon fill="black" stroke="black" points="323.07,-67.11 313.64,-62.29 318.01,-71.94 323.07,-67.11"/>
</g>
<!-- DP5B -->
<g id="node20" class="node">
<title>DP5B</title>
<polygon fill="#ffeb3b" stroke="#fbc02d" stroke-dasharray="5,2" points="258.38,-171.75 127.62,-171.75 127.62,-135.75 264.38,-135.75 264.38,-165.75 258.38,-171.75"/>
<polyline fill="none" stroke="#fbc02d" stroke-dasharray="5,2" points="258.38,-171.75 258.38,-165.75"/>
<polyline fill="none" stroke="#fbc02d" stroke-dasharray="5,2" points="264.38,-165.75 258.38,-165.75"/>
<text xml:space="preserve" text-anchor="middle" x="196" y="-156.25" font-family="Arial" font-size="10.00">DATA POINT 5B Granel:</text>
<text xml:space="preserve" text-anchor="middle" x="196" y="-144.25" font-family="Arial" font-size="10.00">&#45; Peso Neto Báscula Salida</text>
</g>
<!-- P&#45;&gt;DP5B -->
<g id="edge20" class="edge">
<title>P&#45;&gt;DP5B</title>
<path fill="none" stroke="black" stroke-dasharray="5,2" d="M201.04,-244.14C200.11,-227.78 198.71,-202.8 197.61,-183.41"/>
<polygon fill="black" stroke="black" points="201.12,-183.48 197.07,-173.69 194.13,-183.87 201.12,-183.48"/>
<text xml:space="preserve" text-anchor="middle" x="230.11" y="-206.7" font-family="Arial" font-size="9.00">DATOS CLAVE</text>
</g>
<!-- DP5B&#45;&gt;CALCULO_SACKOFF -->
<g id="edge24" class="edge">
<title>DP5B&#45;&gt;CALCULO_SACKOFF</title>
<path fill="none" stroke="black" stroke-dasharray="1,5" d="M210.58,-135.57C225.36,-118.16 248.53,-90.86 266.38,-69.82"/>
<polygon fill="black" stroke="black" points="268.88,-72.28 272.68,-62.39 263.54,-67.75 268.88,-72.28"/>
</g>
</g>
</svg>
